<?xml version="1.0" encoding="UTF-8" standalone="no"?><svg xmlns="http://www.w3.org/2000/svg" xmlns:xlink="http://www.w3.org/1999/xlink" contentScriptType="application/ecmascript" contentStyleType="text/css" height="312px" preserveAspectRatio="none" style="width:1491px;height:312px;background:#FFFFFF;" version="1.1" viewBox="0 0 1491 312" width="1491px" zoomAndPan="magnify"><defs><filter height="300%" id="f9byj7z5orwf3" width="300%" x="-1" y="-1"><feGaussianBlur result="blurOut" stdDeviation="2.0"/><feColorMatrix in="blurOut" result="blurOut2" type="matrix" values="0 0 0 0 0 0 0 0 0 0 0 0 0 0 0 0 0 0 .4 0"/><feOffset dx="4.0" dy="4.0" in="blurOut2" result="blurOut3"/><feBlend in="SourceGraphic" in2="blurOut3" mode="normal"/></filter></defs><g><!--MD5=[0306b9bc691445da94881383ed2a97f4]
entity 244577237--><polygon fill="#FEFECE" filter="url(#f9byj7z5orwf3)" points="663.5,16,673.5,6,946.5,6,946.5,43.6094,936.5,53.6094,663.5,53.6094,663.5,16" style="stroke:#000000;stroke-width:1.5;"/><line style="stroke:#000000;stroke-width:1.5;" x1="936.5" x2="946.5" y1="16" y2="6"/><line style="stroke:#000000;stroke-width:1.5;" x1="663.5" x2="936.5" y1="16" y2="16"/><line style="stroke:#000000;stroke-width:1.5;" x1="936.5" x2="936.5" y1="16" y2="53.6094"/><text fill="#000000" font-family="sans-serif" font-size="14" lengthAdjust="spacing" textLength="243" x="678.5" y="40.5332">org.huberb:tgftools:jar:1.0-SNAPSHOT</text><!--MD5=[809a86b773a53e4ccc22d13475108f36]
entity 1612496268--><polygon fill="#FEFECE" filter="url(#f9byj7z5orwf3)" points="82.5,142,92.5,132,339.5,132,339.5,169.6094,329.5,179.6094,82.5,179.6094,82.5,142" style="stroke:#000000;stroke-width:1.5;"/><line style="stroke:#000000;stroke-width:1.5;" x1="329.5" x2="339.5" y1="142" y2="132"/><line style="stroke:#000000;stroke-width:1.5;" x1="82.5" x2="329.5" y1="142" y2="142"/><line style="stroke:#000000;stroke-width:1.5;" x1="329.5" x2="329.5" y1="142" y2="179.6094"/><text fill="#000000" font-family="sans-serif" font-size="14" lengthAdjust="spacing" textLength="217" x="97.5" y="166.5332">info.picocli:picocli:jar:4.6.1:compile</text><!--MD5=[f9af8240e7441f55790e8a843b9a36f7]
entity 13692003--><polygon fill="#FEFECE" filter="url(#f9byj7z5orwf3)" points="374.5,142,384.5,132,689.5,132,689.5,169.6094,679.5,179.6094,374.5,179.6094,374.5,142" style="stroke:#000000;stroke-width:1.5;"/><line style="stroke:#000000;stroke-width:1.5;" x1="679.5" x2="689.5" y1="142" y2="132"/><line style="stroke:#000000;stroke-width:1.5;" x1="374.5" x2="679.5" y1="142" y2="142"/><line style="stroke:#000000;stroke-width:1.5;" x1="679.5" x2="679.5" y1="142" y2="179.6094"/><text fill="#000000" font-family="sans-serif" font-size="14" lengthAdjust="spacing" textLength="275" x="389.5" y="166.5332">org.junit.jupiter:junit-jupiter-api:jar:5.8.1:test</text><!--MD5=[0c3b9657cc58b891b667400185340c17]
entity 94748968--><polygon fill="#FEFECE" filter="url(#f9byj7z5orwf3)" points="16,268,26,258,300,258,300,295.6094,290,305.6094,16,305.6094,16,268" style="stroke:#000000;stroke-width:1.5;"/><line style="stroke:#000000;stroke-width:1.5;" x1="290" x2="300" y1="268" y2="258"/><line style="stroke:#000000;stroke-width:1.5;" x1="16" x2="290" y1="268" y2="268"/><line style="stroke:#000000;stroke-width:1.5;" x1="290" x2="290" y1="268" y2="305.6094"/><text fill="#000000" font-family="sans-serif" font-size="14" lengthAdjust="spacing" textLength="244" x="31" y="292.5332">org.opentest4j:opentest4j:jar:1.2.0:test</text><!--MD5=[db1c78d5c65ffcd475e6421c985e6342]
entity 1944815218--><polygon fill="#FEFECE" filter="url(#f9byj7z5orwf3)" points="335,268,345,258,715,258,715,295.6094,705,305.6094,335,305.6094,335,268" style="stroke:#000000;stroke-width:1.5;"/><line style="stroke:#000000;stroke-width:1.5;" x1="705" x2="715" y1="268" y2="258"/><line style="stroke:#000000;stroke-width:1.5;" x1="335" x2="705" y1="268" y2="268"/><line style="stroke:#000000;stroke-width:1.5;" x1="705" x2="705" y1="268" y2="305.6094"/><text fill="#000000" font-family="sans-serif" font-size="14" lengthAdjust="spacing" textLength="340" x="350" y="292.5332">org.junit.platform:junit-platform-commons:jar:1.8.1:test</text><!--MD5=[eb8bd1eb637cbc9b3180ba21f86bde20]
entity 1497558532--><polygon fill="#FEFECE" filter="url(#f9byj7z5orwf3)" points="750,268,760,258,1076,258,1076,295.6094,1066,305.6094,750,305.6094,750,268" style="stroke:#000000;stroke-width:1.5;"/><line style="stroke:#000000;stroke-width:1.5;" x1="1066" x2="1076" y1="268" y2="258"/><line style="stroke:#000000;stroke-width:1.5;" x1="750" x2="1066" y1="268" y2="268"/><line style="stroke:#000000;stroke-width:1.5;" x1="1066" x2="1066" y1="268" y2="305.6094"/><text fill="#000000" font-family="sans-serif" font-size="14" lengthAdjust="spacing" textLength="286" x="765" y="292.5332">org.apiguardian:apiguardian-api:jar:1.1.2:test</text><!--MD5=[6fa571e353719285e67aa2f08f99a578]
entity 1584833211--><polygon fill="#FEFECE" filter="url(#f9byj7z5orwf3)" points="724.5,142,734.5,132,1067.5,132,1067.5,169.6094,1057.5,179.6094,724.5,179.6094,724.5,142" style="stroke:#000000;stroke-width:1.5;"/><line style="stroke:#000000;stroke-width:1.5;" x1="1057.5" x2="1067.5" y1="142" y2="132"/><line style="stroke:#000000;stroke-width:1.5;" x1="724.5" x2="1057.5" y1="142" y2="142"/><line style="stroke:#000000;stroke-width:1.5;" x1="1057.5" x2="1057.5" y1="142" y2="179.6094"/><text fill="#000000" font-family="sans-serif" font-size="14" lengthAdjust="spacing" textLength="303" x="739.5" y="166.5332">org.junit.jupiter:junit-jupiter-params:jar:5.8.1:test</text><!--MD5=[c47ecc6d43ebeb8dc6a3a9ff752e8c05]
entity 1970377948--><polygon fill="#FEFECE" filter="url(#f9byj7z5orwf3)" points="1116.5,142,1126.5,132,1455.5,132,1455.5,169.6094,1445.5,179.6094,1116.5,179.6094,1116.5,142" style="stroke:#000000;stroke-width:1.5;"/><line style="stroke:#000000;stroke-width:1.5;" x1="1445.5" x2="1455.5" y1="142" y2="132"/><line style="stroke:#000000;stroke-width:1.5;" x1="1116.5" x2="1445.5" y1="142" y2="142"/><line style="stroke:#000000;stroke-width:1.5;" x1="1445.5" x2="1445.5" y1="142" y2="179.6094"/><text fill="#000000" font-family="sans-serif" font-size="14" lengthAdjust="spacing" textLength="299" x="1131.5" y="166.5332">org.junit.jupiter:junit-jupiter-engine:jar:5.8.1:test</text><!--MD5=[814969c85df4e25eb69e2210290957f8]
entity 1518752790--><polygon fill="#FEFECE" filter="url(#f9byj7z5orwf3)" points="1111.5,268,1121.5,258,1474.5,258,1474.5,295.6094,1464.5,305.6094,1111.5,305.6094,1111.5,268" style="stroke:#000000;stroke-width:1.5;"/><line style="stroke:#000000;stroke-width:1.5;" x1="1464.5" x2="1474.5" y1="268" y2="258"/><line style="stroke:#000000;stroke-width:1.5;" x1="1111.5" x2="1464.5" y1="268" y2="268"/><line style="stroke:#000000;stroke-width:1.5;" x1="1464.5" x2="1464.5" y1="268" y2="305.6094"/><text fill="#000000" font-family="sans-serif" font-size="14" lengthAdjust="spacing" textLength="323" x="1126.5" y="292.5332">org.junit.platform:junit-platform-engine:jar:1.8.1:test</text><!--MD5=[df0bf2cc8bd7d04894742d3d885e81bb]
link 244577237 to 1612496268--><path d="M694.67,54.03 C589.81,75.92 432.74,108.71 326.28,130.94 " fill="none" id="244577237-to-1612496268" style="stroke:#A80036;stroke-width:1.0;"/><polygon fill="#A80036" points="321.25,131.99,330.8798,134.0558,326.1434,130.9628,329.2363,126.2264,321.25,131.99" style="stroke:#A80036;stroke-width:1.0;"/><text fill="#000000" font-family="sans-serif" font-size="13" lengthAdjust="spacing" textLength="45" x="545" y="98.4951">compile</text><!--MD5=[3562359c9162fd5e3f124fe998f26338]
link 13692003 to 94748968--><path d="M462.53,180.03 C397.03,201.75 299.18,234.19 232.18,256.4 " fill="none" id="13692003-to-94748968" style="stroke:#A80036;stroke-width:1.0;"/><polygon fill="#A80036" points="227.41,257.99,237.2113,258.9564,232.1563,256.4174,234.6952,251.3624,227.41,257.99" style="stroke:#A80036;stroke-width:1.0;"/><text fill="#000000" font-family="sans-serif" font-size="13" lengthAdjust="spacing" textLength="22" x="369" y="224.4951">test</text><!--MD5=[cd1c23988c8b03b53b293edbd81d9e46]
link 13692003 to 1944815218--><path d="M530.7,180.03 C529.54,200.52 527.85,230.56 526.61,252.55 " fill="none" id="13692003-to-1944815218" style="stroke:#A80036;stroke-width:1.0;"/><polygon fill="#A80036" points="526.32,257.67,530.8269,248.9129,526.6052,252.6781,522.84,248.4565,526.32,257.67" style="stroke:#A80036;stroke-width:1.0;"/><text fill="#000000" font-family="sans-serif" font-size="13" lengthAdjust="spacing" textLength="22" x="530" y="224.4951">test</text><!--MD5=[1cd4ab804a5a815ebc85531016174198]
link 13692003 to 1497558532--><path d="M602.77,180.03 C669.49,201.75 769.18,234.19 837.43,256.4 " fill="none" id="13692003-to-1497558532" style="stroke:#A80036;stroke-width:1.0;"/><polygon fill="#A80036" points="842.29,257.99,834.963,251.4086,837.5339,256.4475,832.495,259.0183,842.29,257.99" style="stroke:#A80036;stroke-width:1.0;"/><text fill="#000000" font-family="sans-serif" font-size="13" lengthAdjust="spacing" textLength="22" x="747" y="224.4951">test</text><!--MD5=[2ba64f3c3b6f76af9b8f822450b3095b]
link 244577237 to 13692003--><path d="M754.29,54.03 C706.94,75.54 636.42,107.57 587.56,129.76 " fill="none" id="244577237-to-13692003" style="stroke:#A80036;stroke-width:1.0;"/><polygon fill="#A80036" points="582.9,131.88,592.7485,131.7972,587.4518,129.811,589.4381,124.5143,582.9,131.88" style="stroke:#A80036;stroke-width:1.0;"/><text fill="#000000" font-family="sans-serif" font-size="13" lengthAdjust="spacing" textLength="22" x="686" y="98.4951">test</text><!--MD5=[c13beef92ab4edb098aa5b3ee70888f5]
link 244577237 to 1584833211--><path d="M821.9,54.03 C837.13,74.78 859.54,105.32 875.73,127.38 " fill="none" id="244577237-to-1584833211" style="stroke:#A80036;stroke-width:1.0;"/><polygon fill="#A80036" points="878.88,131.67,876.7789,122.0479,875.9213,127.6393,870.3299,126.7818,878.88,131.67" style="stroke:#A80036;stroke-width:1.0;"/><text fill="#000000" font-family="sans-serif" font-size="13" lengthAdjust="spacing" textLength="22" x="857" y="98.4951">test</text><!--MD5=[11a5b61996391eae9336adddf0bfe5ec]
link 1970377948 to 1518752790--><path d="M1287.3,180.03 C1288.46,200.52 1290.15,230.56 1291.39,252.55 " fill="none" id="1970377948-to-1518752790" style="stroke:#A80036;stroke-width:1.0;"/><polygon fill="#A80036" points="1291.68,257.67,1295.16,248.4565,1291.3948,252.6781,1287.1731,248.9129,1291.68,257.67" style="stroke:#A80036;stroke-width:1.0;"/><text fill="#000000" font-family="sans-serif" font-size="13" lengthAdjust="spacing" textLength="22" x="1291" y="224.4951">test</text><!--MD5=[b6ae9c2b799d997692a3d9b6763e1dc9]
link 244577237 to 1970377948--><path d="M894.35,54.03 C979,75.86 1105.69,108.52 1191.88,130.74 " fill="none" id="244577237-to-1970377948" style="stroke:#A80036;stroke-width:1.0;"/><polygon fill="#A80036" points="1196.73,131.99,1189.0068,125.8783,1191.8869,130.7471,1187.0182,133.6272,1196.73,131.99" style="stroke:#A80036;stroke-width:1.0;"/><text fill="#000000" font-family="sans-serif" font-size="13" lengthAdjust="spacing" textLength="22" x="1076" y="98.4951">test</text><!--MD5=[40c4879343a1625315a034a919782915]
@startuml

' nodes
node "org.huberb:tgftools:jar:1.0-SNAPSHOT" as 244577237
node "info.picocli:picocli:jar:4.6.1:compile" as 1612496268
node "org.junit.jupiter:junit-jupiter-api:jar:5.8.1:test" as 13692003
node "org.opentest4j:opentest4j:jar:1.2.0:test" as 94748968
node "org.junit.platform:junit-platform-commons:jar:1.8.1:test" as 1944815218
node "org.apiguardian:apiguardian-api:jar:1.1.2:test" as 1497558532
node "org.junit.jupiter:junit-jupiter-params:jar:5.8.1:test" as 1584833211
node "org.junit.jupiter:junit-jupiter-engine:jar:5.8.1:test" as 1970377948
node "org.junit.platform:junit-platform-engine:jar:1.8.1:test" as 1518752790
' edges
244577237 - -> 1612496268 : compile
13692003 - -> 94748968 : test
13692003 - -> 1944815218 : test
13692003 - -> 1497558532 : test
244577237 - -> 13692003 : test
244577237 - -> 1584833211 : test
1970377948 - -> 1518752790 : test
244577237 - -> 1970377948 : test

@enduml

@startuml

node "org.huberb:tgftools:jar:1.0-SNAPSHOT" as 244577237
node "info.picocli:picocli:jar:4.6.1:compile" as 1612496268
node "org.junit.jupiter:junit-jupiter-api:jar:5.8.1:test" as 13692003
node "org.opentest4j:opentest4j:jar:1.2.0:test" as 94748968
node "org.junit.platform:junit-platform-commons:jar:1.8.1:test" as 1944815218
node "org.apiguardian:apiguardian-api:jar:1.1.2:test" as 1497558532
node "org.junit.jupiter:junit-jupiter-params:jar:5.8.1:test" as 1584833211
node "org.junit.jupiter:junit-jupiter-engine:jar:5.8.1:test" as 1970377948
node "org.junit.platform:junit-platform-engine:jar:1.8.1:test" as 1518752790
244577237 - -> 1612496268 : compile
13692003 - -> 94748968 : test
13692003 - -> 1944815218 : test
13692003 - -> 1497558532 : test
244577237 - -> 13692003 : test
244577237 - -> 1584833211 : test
1970377948 - -> 1518752790 : test
244577237 - -> 1970377948 : test

@enduml

PlantUML version 1.2021.10(Mon Aug 30 15:43:48 CEST 2021)
(GPL source distribution)
Java Runtime: Java(TM) SE Runtime Environment
JVM: Java HotSpot(TM) 64-Bit Server VM
Default Encoding: Cp1252
Language: en
Country: US
--></g></svg>